<?xml version="1.0" standalone="no"?>
<!DOCTYPE svg PUBLIC "-//W3C//DTD SVG 20010904//EN"
        "http://www.w3.org/TR/2001/REC-SVG-20010904/DTD/svg10.dtd">
<svg version="1.0" xmlns="http://www.w3.org/2000/svg" viewBox="0 0 225.000000 225.000000"
     preserveAspectRatio="xMidYMid meet">
    <clipPath id="a">
        <path d="m0 0h124.1v28h-124.1z"></path>
    </clipPath>
    <g clip-path="url(#a)">
        <path d="m115.8 16.2h-.2c-2.8-.6-3.8-.9-3.8-2.1 0-.6.4-2.1 3.6-2.1 2.2 0 3.5.6 4 2.2h4.3c-.6-2.7-2.6-5.5-8.1-5.5-2.4 0-4.5.5-5.9 1.6-1.4 1-2.1 2.6-2.1 4.4 0 2.9 1.6 4.1 7.4 5.5.5.1.9.2 1.2.3 2.2.5 3.5.8 3.5 2.2 0 1.3-1.2 2-3.7 2-2.8 0-4.4-.8-5-2.8h-4.2c.9 3.9 4.3 6.1 9.1 6.1 4 0 8.1-1.6 8.1-6 .1-3.5-2.5-4.5-8.2-5.8z"></path>
        <path d="m94.8 8.6c-5.4 0-9.7 4.3-9.7 9.7s4.3 9.7 9.7 9.7c4.1 0 7.6-2.6 9-6.1h-4.7c-1 1.4-2.6 2.4-4.3 2.4-2.6 0-4.8-2-5.3-4.7h14.9c.1-.4.1-.8.1-1.2 0-5.4-4.4-9.8-9.7-9.8zm-5.1 7.7c.8-2.2 2.7-3.9 5-3.9s4.3 1.6 5 3.9z"></path>
        <path d="m74.1 8.6c-2.2 0-4.2.9-5.6 2.4-1.4-1.5-3.4-2.4-5.6-2.4-4.3 0-7.8 3.5-7.8 7.8v11.6h4.3v-11.6c0-1.9 1.6-3.4 3.4-3.4 1.9 0 3.4 1.6 3.4 3.4v11.6h4.3v-11.6c0-1.9 1.6-3.4 3.4-3.4 1.9 0 3.4 1.6 3.4 3.4v11.6h4.3v-11.6c.3-4.3-3.2-7.8-7.5-7.8z"></path>
        <path d="m46.3 28h4.3v-28l-4.3.9z"></path>
        <path d="m33 8.6c-5.4 0-9.7 4.3-9.7 9.7s4.3 9.7 9.7 9.7c4.1 0 7.6-2.6 9-6.1h-4.7c-1 1.4-2.6 2.4-4.3 2.4-2.6 0-4.8-2-5.3-4.7h14.9c.1-.4.1-.8.1-1.2 0-5.4-4.4-9.8-9.7-9.8zm-5.1 7.7c.8-2.2 2.7-3.9 5-3.9s4.3 1.6 5 3.9z"></path>
        <path d="m15.1 4.3v9.7h-10.8v-9.7h-4.3v23.7h4.3v-9.7h10.8v9.7h4.3v-23.7z"></path>
    </g>
</svg>
