<?xml version="1.0" standalone="no"?>
<!DOCTYPE svg PUBLIC "-//W3C//DTD SVG 20010904//EN"
 "http://www.w3.org/TR/2001/REC-SVG-20010904/DTD/svg10.dtd">
<svg version="1.0" xmlns="http://www.w3.org/2000/svg"
 width="225.000000pt" height="225.000000pt" viewBox="0 0 225.000000 225.000000"
 preserveAspectRatio="xMidYMid meet">

<g transform="translate(0.000000,225.000000) scale(0.100000,-0.100000)"
fill="#000000" stroke="none">
<path d="M0 1125 l0 -1125 1125 0 1125 0 0 1125 0 1125 -1125 0 -1125 0 0
-1125z m1227 899 c91 -68 100 -160 28 -280 -45 -74 -75 -170 -75 -238 0 -46
22 -151 34 -163 11 -11 111 55 155 103 55 60 83 114 110 213 33 125 83 171
185 171 153 0 229 -186 121 -295 -20 -20 -53 -39 -77 -45 -157 -42 -239 -85
-300 -161 -32 -39 -68 -100 -68 -113 0 -12 108 -36 160 -36 96 0 170 25 290
98 49 31 135 30 181 -1 124 -83 109 -261 -26 -313 -61 -23 -112 -14 -188 31
-95 57 -157 75 -256 74 -85 -1 -152 -16 -158 -36 -2 -6 16 -39 40 -74 54 -79
139 -139 239 -170 151 -45 187 -71 208 -150 14 -52 4 -100 -30 -147 -56 -77
-163 -96 -238 -42 -48 34 -65 64 -81 138 -27 130 -111 246 -218 305 l-51 27
-17 -65 c-32 -117 -8 -237 71 -366 44 -70 49 -147 14 -204 -57 -93 -185 -114
-266 -43 -70 62 -81 135 -32 224 67 125 79 157 87 226 8 73 1 153 -18 200
l-10 28 -53 -31 c-105 -60 -170 -151 -209 -296 -12 -43 -30 -90 -41 -106 -49
-69 -162 -88 -236 -40 -71 46 -103 153 -68 222 20 38 81 90 114 96 55 11 138
38 173 56 56 28 142 112 172 167 l27 49 -28 13 c-15 7 -69 15 -120 18 -106 5
-171 -13 -277 -76 -44 -27 -73 -37 -115 -40 -49 -3 -60 0 -97 27 -62 45 -78
75 -78 146 0 73 26 121 83 153 69 38 132 30 233 -30 109 -66 238 -85 347 -53
59 18 59 19 4 103 -59 90 -173 158 -313 186 -41 9 -92 49 -116 91 -65 115 19
255 154 255 102 0 143 -40 182 -172 32 -112 63 -168 128 -232 51 -50 117 -91
133 -81 17 10 32 88 33 165 1 84 -15 136 -74 240 -42 75 -54 117 -44 166 6 37
65 110 100 125 36 16 142 5 172 -17z"/>
</g>
</svg>
