<svg version="1.0" xmlns="http://www.w3.org/2000/svg"
     width="52.000000pt" height="51.000000pt" viewBox="0 0 52.000000 51.000000"
     preserveAspectRatio="xMidYMid meet">

    <g transform="translate(0.000000,51.000000) scale(0.100000,-0.100000)"
       fill="#000000" stroke="none">
        <path d="M119 437 c-54 -47 -54 -52 -8 -101 23 -25 46 -46 51 -46 11 0 78 67
78 78 0 8 -85 92 -92 92 -2 0 -15 -10 -29 -23z"/>
        <path d="M344 437 c-64 -55 -6 -156 73 -126 56 21 71 82 28 124 -30 31 -66 32
-101 2z"/>
        <path d="M218 310 c-25 -26 -29 -36 -24 -62 8 -41 -16 -68 -59 -68 -58 0 -85
-60 -45 -100 41 -41 100 -13 100 47 0 38 30 67 60 58 32 -10 77 13 90 46 16
37 -1 82 -36 98 -38 17 -53 14 -86 -19z"/>
        <path d="M333 195 c-18 -19 -33 -38 -33 -43 0 -4 15 -22 33 -38 60 -56 61 -56
91 -33 50 40 51 54 5 104 -23 25 -47 45 -53 44 -6 0 -26 -16 -43 -34z"/>
    </g>
</svg>
