<svg xmlns="http://www.w3.org/2000/svg" width="48" height="48" viewBox="0 0 48 48"><g transform="translate(-16 -16)"><rect width="48" height="48" rx="8" transform="translate(16 16)" fill="#6246ea"/><g transform="translate(2)"><g transform="translate(-63 5)"><rect width="4" height="23" rx="2" transform="translate(84 24)" fill="#fffffe"/><path d="M1.778,0H14.556A.444.444,0,0,1,15,.444v0A3.556,3.556,0,0,1,11.444,4H0A0,0,0,0,1,0,4V1.778A1.778,1.778,0,0,1,1.778,0Z" transform="translate(84 24)" fill="#fffffe"/><rect width="10" height="4" rx="2" transform="translate(86 34)" fill="#fffffe"/></g><g transform="translate(-68 1.396)"><rect width="26" height="29" rx="13" transform="translate(101 24.604)" fill="#6246ea"/><rect width="20" height="23" rx="10" transform="translate(103 27.604)" fill="#fffffe"/><rect width="12" height="15" rx="6" transform="translate(107 31.604)" fill="#6246ea"/></g></g></g></svg>